<?xml version="1.0" standalone="no"?>
<!DOCTYPE svg PUBLIC "-//W3C//DTD SVG 20010904//EN"
 "http://www.w3.org/TR/2001/REC-SVG-20010904/DTD/svg10.dtd">
<svg version="1.0" xmlns="http://www.w3.org/2000/svg"
 width="800.000000pt" height="800.000000pt" viewBox="0 0 800.000000 800.000000"
 preserveAspectRatio="xMidYMid meet">
<metadata>
Created by potrace 1.14, written by Peter Selinger 2001-2017
</metadata>
<g transform="translate(0.000000,800.000000) scale(0.100000,-0.100000)"
fill="#000000" stroke="none">
<path d="M0 4000 l0 -3000 4000 0 4000 0 0 3000 0 3000 -4000 0 -4000 0 0
-3000z m5994 2252 c6 -10 -914 -2636 -977 -2788 -280 -679 -739 -1195 -1310
-1475 -159 -77 -335 -138 -493 -169 -153 -31 -422 -38 -559 -16 -344 57 -586
236 -650 481 -19 75 -19 233 0 305 43 162 168 311 332 392 128 65 212 81 376
76 114 -4 143 -8 218 -35 107 -37 208 -103 288 -188 104 -112 153 -234 155
-392 1 -60 5 -93 12 -93 25 0 143 87 210 154 127 128 237 316 348 596 36 91
218 599 405 1130 186 531 370 1053 409 1160 38 107 67 199 64 204 -3 5 -334 6
-808 2 -623 -5 -820 -9 -876 -20 -203 -39 -380 -136 -523 -287 -120 -127 -168
-245 -169 -414 -1 -119 18 -178 70 -225 41 -36 70 -39 79 -7 53 187 175 332
350 417 124 60 190 74 340 74 153 1 218 -14 345 -77 112 -55 232 -171 278
-268 64 -135 79 -289 42 -433 -28 -109 -63 -170 -150 -256 -170 -170 -425
-245 -755 -221 -167 12 -263 30 -405 77 -481 160 -719 518 -671 1012 36 373
185 662 455 881 294 238 681 376 1127 400 191 11 2436 13 2443 3z"/>
</g>
</svg>
